<?xml version="1.0" encoding="iso-8859-1"?>
<!-- Uploaded to: SVG Repo, www.svgrepo.com, Generator: SVG Repo Mixer Tools -->
<svg fill="#000000" height="80px" width="80px" version="1.1" id="Layer_1" xmlns="http://www.w3.org/2000/svg" xmlns:xlink="http://www.w3.org/1999/xlink" 
	 viewBox="0 0 512 512" xml:space="preserve">
<g>
	<g>
		<polygon points="466.943,444.488 466.943,389.901 45.057,389.901 45.057,444.488 212.175,444.488 212.175,478.552 
			169.652,478.552 169.652,512 342.346,512 342.346,478.552 299.823,478.552 299.823,444.488 		"/>
	</g>
</g>
<g>
	<g>
		<path d="M272.724,0v78.578l10.741-4.649l24.532-65.324C297.144,4.226,285.349,1.339,272.724,0z"/>
	</g>
</g>
<g>
	<g>
		<path d="M204.002,8.605l24.532,65.324l10.741,4.649V0C226.65,1.339,214.855,4.226,204.002,8.605z"/>
	</g>
</g>
<g>
	<g>
		<path d="M202.213,98.984l-27.457-73.115c-6.762,5.54-12.916,11.905-18.398,19.093c-3.249,4.261-6.219,8.792-8.952,13.534
			l28.265,60.554l-30.31,14.148l-14.443-30.941c-2.849,13.241-4.305,27.417-4.305,42.329c0,81.661,44.594,168.655,112.66,181.066
			v-41.126h-18.539v-33.448h18.54V115.027L202.213,98.984z M189.103,207.577c-11.38,0-20.605-9.225-20.605-20.605
			c0-11.38,9.225-20.605,20.605-20.605s20.605,9.225,20.605,20.605C209.709,198.352,200.483,207.577,189.103,207.577z"/>
	</g>
</g>
<g>
	<g>
		<path d="M380.614,100.277l-15.366,32.921l-30.31-14.148l28.88-61.872c-2.522-4.26-5.231-8.352-8.177-12.216
			c-5.482-7.188-11.636-13.554-18.398-19.093l-27.458,73.115l-37.062,16.043v136.051h18.54v33.448h-18.54v41.127
			c68.065-12.412,112.66-99.405,112.66-181.066C385.383,128.922,383.753,114.087,380.614,100.277z M322.896,207.577
			c-11.38,0-20.605-9.225-20.605-20.605c0-11.38,9.225-20.605,20.605-20.605c11.38,0,20.605,9.225,20.605,20.605
			C343.503,198.352,334.276,207.577,322.896,207.577z"/>
	</g>
</g>
<g>
	<g>
		<path d="M418.788,149.348c-0.904,49.23-15.766,99.245-41.09,137.92c-23.784,36.324-54.795,60.098-89.419,69.185h178.663V149.348
			H418.788z"/>
	</g>
</g>
<g>
	<g>
		<path d="M134.302,287.268c-25.325-38.675-40.187-88.691-41.09-137.92H45.057v207.105h178.663
			C189.097,347.366,158.086,323.592,134.302,287.268z"/>
	</g>
</g>
</svg>